<svg width="45" height="41" fill="none" xmlns="http://www.w3.org/2000/svg"><path d="m24.288 20.078 5.545-4.915-17.908-8.921c-1.187-.568-2.299-.648-3.274-.027l15.637 13.863Zm6.49 5.753 5.764-2.873c1.125-.559 1.741-1.35 1.741-2.227 0-.876-.616-1.669-1.74-2.227l-5.218-2.598-5.874 5.205 5.327 4.72ZM7.688 7.424c-.12.327-.188.693-.188 1.093v24.439c0 .633.157 1.178.442 1.612L23.124 21.11 7.687 7.424Zm16.6 14.716L9.191 35.524c.289.098.6.15.928.15.585 0 1.194-.154 1.815-.46l17.353-8.637-4.998-4.437Z" fill="#fff"/></svg>