<svg width="63" height="63" fill="none" xmlns="http://www.w3.org/2000/svg"><path d="m59.83 19.84-.154-.378-.288.29L53.67 25.5l-.11.11.04.15c.478 1.822.717 3.705.717 5.65 0 12.62-10.257 22.877-22.877 22.877-12.65 0-22.908-10.258-22.908-22.877 0-1.976.24-3.889.718-5.711l.039-.15-.11-.11-5.718-5.748-.288-.29-.154.378a30.738 30.738 0 0 0-2.29 11.63c0 16.913 13.768 30.68 30.68 30.68 16.913 0 30.68-13.767 30.68-30.68 0-4.09-.793-7.997-2.259-11.57Zm-9.4-1.14.182.274.233-.233 5.205-5.204.164-.165-.139-.188C50.49 5.646 41.515.73 31.41.73 21.335.73 12.36 5.615 6.774 13.154l-.139.188.165.164 5.204 5.205.233.232.183-.273c3.47-5.174 9.002-8.852 15.4-9.869 1.166-.179 2.363-.269 3.59-.269 1.227 0 2.423.09 3.589.27 6.428 1.016 11.96 4.724 15.43 9.898Z" fill="#75BF7A" stroke="#75BF7A" stroke-width=".541"/></svg>